<?xml version="1.0" encoding="UTF-8" standalone="no"?>
<!DOCTYPE svg PUBLIC "-//W3C//DTD SVG 1.1//EN"
 "http://www.w3.org/Graphics/SVG/1.1/DTD/svg11.dtd">
<!-- Generated by graphviz version 2.26.3 (20100126.1600)
 -->
<!-- Title: G Pages: 1 -->
<svg width="831pt" height="1232pt"
 viewBox="0.00 0.00 831.00 1232.00" xmlns="http://www.w3.org/2000/svg" xmlns:xlink="http://www.w3.org/1999/xlink">
<g id="graph1" class="graph" transform="scale(1 1) rotate(0) translate(4 1228)">
<title>G</title>
<polygon fill="white" stroke="white" points="-4,5 -4,-1228 828,-1228 828,5 -4,5"/>
<!-- consensus_assign -->
<g id="node2" class="node"><title>consensus_assign</title>
<polyline fill="none" stroke="black" points="322.5,-0.5 457.5,-0.5 "/>
<path fill="none" stroke="black" d="M457.5,-0.5C463.5,-0.5 469.5,-6.5 469.5,-12.5"/>
<polyline fill="none" stroke="black" points="469.5,-12.5 469.5,-35.5 "/>
<path fill="none" stroke="black" d="M469.5,-35.5C469.5,-41.5 463.5,-47.5 457.5,-47.5"/>
<polyline fill="none" stroke="black" points="457.5,-47.5 322.5,-47.5 "/>
<path fill="none" stroke="black" d="M322.5,-47.5C316.5,-47.5 310.5,-41.5 310.5,-35.5"/>
<polyline fill="none" stroke="black" points="310.5,-35.5 310.5,-12.5 "/>
<path fill="none" stroke="black" d="M310.5,-12.5C310.5,-6.5 316.5,-0.5 322.5,-0.5"/>
<text text-anchor="start" x="319" y="-30.3" font-family="Helvetica,sans-Serif" font-size="18.00">consensus.assign</text>
<text text-anchor="start" x="348.5" y="-11.6333" font-family="Helvetica,sans-Serif" font-size="14.00">assign.pbs.gz</text>
</g>
<!-- consensus_groups -->
<g id="node3" class="node"><title>consensus_groups</title>
<polyline fill="none" stroke="black" points="499,-0.5 637,-0.5 "/>
<path fill="none" stroke="black" d="M637,-0.5C643,-0.5 649,-6.5 649,-12.5"/>
<polyline fill="none" stroke="black" points="649,-12.5 649,-35.5 "/>
<path fill="none" stroke="black" d="M649,-35.5C649,-41.5 643,-47.5 637,-47.5"/>
<polyline fill="none" stroke="black" points="637,-47.5 499,-47.5 "/>
<path fill="none" stroke="black" d="M499,-47.5C493,-47.5 487,-41.5 487,-35.5"/>
<polyline fill="none" stroke="black" points="487,-35.5 487,-12.5 "/>
<path fill="none" stroke="black" d="M487,-12.5C487,-6.5 493,-0.5 499,-0.5"/>
<text text-anchor="start" x="495.5" y="-30.3" font-family="Helvetica,sans-Serif" font-size="18.00">consensus.groups</text>
<text text-anchor="start" x="547" y="-11.6333" font-family="Helvetica,sans-Serif" font-size="14.00">groups</text>
</g>
<!-- consensus_model -->
<g id="node4" class="node"><title>consensus_model</title>
<polyline fill="none" stroke="black" points="679,-0.5 811,-0.5 "/>
<path fill="none" stroke="black" d="M811,-0.5C817,-0.5 823,-6.5 823,-12.5"/>
<polyline fill="none" stroke="black" points="823,-12.5 823,-35.5 "/>
<path fill="none" stroke="black" d="M823,-35.5C823,-41.5 817,-47.5 811,-47.5"/>
<polyline fill="none" stroke="black" points="811,-47.5 679,-47.5 "/>
<path fill="none" stroke="black" d="M679,-47.5C673,-47.5 667,-41.5 667,-35.5"/>
<polyline fill="none" stroke="black" points="667,-35.5 667,-12.5 "/>
<path fill="none" stroke="black" d="M667,-12.5C667,-6.5 673,-0.5 679,-0.5"/>
<text text-anchor="start" x="675.5" y="-30.3" font-family="Helvetica,sans-Serif" font-size="18.00">consensus.model</text>
<text text-anchor="start" x="707.5" y="-11.6333" font-family="Helvetica,sans-Serif" font-size="14.00">model.pb.gz</text>
</g>
<!-- ingest_diffs -->
<g id="node5" class="node"><title>ingest_diffs</title>
<polyline fill="none" stroke="black" points="243.5,-504.5 322.5,-504.5 "/>
<path fill="none" stroke="black" d="M322.5,-504.5C328.5,-504.5 334.5,-510.5 334.5,-516.5"/>
<polyline fill="none" stroke="black" points="334.5,-516.5 334.5,-539.5 "/>
<path fill="none" stroke="black" d="M334.5,-539.5C334.5,-545.5 328.5,-551.5 322.5,-551.5"/>
<polyline fill="none" stroke="black" points="322.5,-551.5 243.5,-551.5 "/>
<path fill="none" stroke="black" d="M243.5,-551.5C237.5,-551.5 231.5,-545.5 231.5,-539.5"/>
<polyline fill="none" stroke="black" points="231.5,-539.5 231.5,-516.5 "/>
<path fill="none" stroke="black" d="M231.5,-516.5C231.5,-510.5 237.5,-504.5 243.5,-504.5"/>
<text text-anchor="start" x="240" y="-534.3" font-family="Helvetica,sans-Serif" font-size="18.00">ingest.diffs</text>
<text text-anchor="start" x="248.5" y="-515.633" font-family="Helvetica,sans-Serif" font-size="14.00">diffs.pbs.gz</text>
</g>
<!-- shuffle -->
<g id="node24" class="node"><title>shuffle</title>
<polygon fill="pink" stroke="black" points="326,-467.5 232,-467.5 232,-420.5 326,-420.5 326,-467.5"/>
<text text-anchor="start" x="240.5" y="-453.233" font-family="Helvetica,sans-Serif" font-size="14.00">loom.runner.</text>
<text text-anchor="start" x="252.5" y="-433.5" font-family="Helvetica,sans-Serif" font-size="18.00">shuffle</text>
</g>
<!-- ingest_diffs&#45;&gt;shuffle -->
<g id="edge22" class="edge"><title>ingest_diffs&#45;&gt;shuffle</title>
<path fill="none" stroke="black" d="M281.864,-504.154C281.473,-495.926 281.026,-486.548 280.604,-477.684"/>
<polygon fill="black" stroke="black" points="284.096,-477.437 280.125,-467.615 277.104,-477.77 284.096,-477.437"/>
</g>
<!-- ingest_encoding -->
<g id="node6" class="node"><title>ingest_encoding</title>
<polyline fill="none" stroke="black" points="371.5,-1008.5 488.5,-1008.5 "/>
<path fill="none" stroke="black" d="M488.5,-1008.5C494.5,-1008.5 500.5,-1014.5 500.5,-1020.5"/>
<polyline fill="none" stroke="black" points="500.5,-1020.5 500.5,-1043.5 "/>
<path fill="none" stroke="black" d="M500.5,-1043.5C500.5,-1049.5 494.5,-1055.5 488.5,-1055.5"/>
<polyline fill="none" stroke="black" points="488.5,-1055.5 371.5,-1055.5 "/>
<path fill="none" stroke="black" d="M371.5,-1055.5C365.5,-1055.5 359.5,-1049.5 359.5,-1043.5"/>
<polyline fill="none" stroke="black" points="359.5,-1043.5 359.5,-1020.5 "/>
<path fill="none" stroke="black" d="M359.5,-1020.5C359.5,-1014.5 365.5,-1008.5 371.5,-1008.5"/>
<text text-anchor="start" x="368" y="-1038.3" font-family="Helvetica,sans-Serif" font-size="18.00">ingest.encoding</text>
<text text-anchor="start" x="379" y="-1019.63" font-family="Helvetica,sans-Serif" font-size="14.00">encoding.json.gz</text>
</g>
<!-- generate_init -->
<g id="node27" class="node"><title>generate_init</title>
<polygon fill="pink" stroke="black" points="503,-467.5 383,-467.5 383,-420.5 503,-420.5 503,-467.5"/>
<text text-anchor="start" x="397.5" y="-453.233" font-family="Helvetica,sans-Serif" font-size="14.00">loom.generate.</text>
<text text-anchor="start" x="391.5" y="-433.5" font-family="Helvetica,sans-Serif" font-size="18.00">generate_init</text>
</g>
<!-- ingest_encoding&#45;&gt;generate_init -->
<g id="edge50" class="edge"><title>ingest_encoding&#45;&gt;generate_init</title>
<path fill="none" stroke="black" d="M432.982,-1008.4C436.821,-975.927 443,-915.633 443,-864 443,-864 443,-864 443,-612 443,-565.548 443,-511.871 443,-477.938"/>
<polygon fill="black" stroke="black" points="446.5,-477.649 443,-467.649 439.5,-477.649 446.5,-477.649"/>
</g>
<!-- import_rows -->
<g id="node30" class="node"><title>import_rows</title>
<polygon fill="pink" stroke="black" points="585,-971.5 471,-971.5 471,-924.5 585,-924.5 585,-971.5"/>
<text text-anchor="start" x="489.5" y="-957.233" font-family="Helvetica,sans-Serif" font-size="14.00">loom.format.</text>
<text text-anchor="start" x="479.5" y="-937.5" font-family="Helvetica,sans-Serif" font-size="18.00">import_rows</text>
</g>
<!-- ingest_encoding&#45;&gt;import_rows -->
<g id="edge66" class="edge"><title>ingest_encoding&#45;&gt;import_rows</title>
<path fill="none" stroke="black" d="M457.559,-1008.38C468.415,-999.073 481.019,-988.269 492.54,-978.394"/>
<polygon fill="black" stroke="black" points="494.993,-980.901 500.308,-971.736 490.438,-975.587 494.993,-980.901"/>
</g>
<!-- get_server -->
<g id="node33" class="node"><title>get_server</title>
<polygon fill="pink" stroke="black" points="128,-131.5 26,-131.5 26,-84.5 128,-84.5 128,-131.5"/>
<text text-anchor="start" x="43" y="-117.233" font-family="Helvetica,sans-Serif" font-size="14.00">loom.preql.</text>
<text text-anchor="start" x="34.5" y="-97.5" font-family="Helvetica,sans-Serif" font-size="18.00">get_server</text>
</g>
<!-- ingest_encoding&#45;&gt;get_server -->
<g id="edge86" class="edge"><title>ingest_encoding&#45;&gt;get_server</title>
<path fill="none" stroke="black" d="M359.476,-1019.53C237.486,-995.948 0,-940.241 0,-864 0,-864 0,-864 0,-276 0,-224.9 29.8034,-172.357 52.3265,-139.945"/>
<polygon fill="black" stroke="black" points="55.2107,-141.929 58.1637,-131.754 49.51,-137.866 55.2107,-141.929"/>
</g>
<!-- ingest_rows -->
<g id="node7" class="node"><title>ingest_rows</title>
<polyline fill="none" stroke="black" points="319,-840.5 403,-840.5 "/>
<path fill="none" stroke="black" d="M403,-840.5C409,-840.5 415,-846.5 415,-852.5"/>
<polyline fill="none" stroke="black" points="415,-852.5 415,-875.5 "/>
<path fill="none" stroke="black" d="M415,-875.5C415,-881.5 409,-887.5 403,-887.5"/>
<polyline fill="none" stroke="black" points="403,-887.5 319,-887.5 "/>
<path fill="none" stroke="black" d="M319,-887.5C313,-887.5 307,-881.5 307,-875.5"/>
<polyline fill="none" stroke="black" points="307,-875.5 307,-852.5 "/>
<path fill="none" stroke="black" d="M307,-852.5C307,-846.5 313,-840.5 319,-840.5"/>
<text text-anchor="start" x="315.5" y="-870.3" font-family="Helvetica,sans-Serif" font-size="18.00">ingest.rows</text>
<text text-anchor="start" x="324.5" y="-851.633" font-family="Helvetica,sans-Serif" font-size="14.00">rows.pbs.gz</text>
</g>
<!-- tare -->
<g id="node22" class="node"><title>tare</title>
<polygon fill="pink" stroke="black" points="330,-803.5 236,-803.5 236,-756.5 330,-756.5 330,-803.5"/>
<text text-anchor="start" x="244.5" y="-789.233" font-family="Helvetica,sans-Serif" font-size="14.00">loom.runner.</text>
<text text-anchor="start" x="267.5" y="-769.5" font-family="Helvetica,sans-Serif" font-size="18.00">tare</text>
</g>
<!-- ingest_rows&#45;&gt;tare -->
<g id="edge10" class="edge"><title>ingest_rows&#45;&gt;tare</title>
<path fill="none" stroke="black" d="M338.857,-840.154C330.47,-831.121 320.795,-820.702 311.878,-811.099"/>
<polygon fill="black" stroke="black" points="314.298,-808.562 304.928,-803.615 309.168,-813.325 314.298,-808.562"/>
</g>
<!-- sparsify -->
<g id="node23" class="node"><title>sparsify</title>
<polygon fill="pink" stroke="black" points="330,-635.5 236,-635.5 236,-588.5 330,-588.5 330,-635.5"/>
<text text-anchor="start" x="244.5" y="-621.233" font-family="Helvetica,sans-Serif" font-size="14.00">loom.runner.</text>
<text text-anchor="start" x="252" y="-601.5" font-family="Helvetica,sans-Serif" font-size="18.00">sparsify</text>
</g>
<!-- ingest_rows&#45;&gt;sparsify -->
<g id="edge18" class="edge"><title>ingest_rows&#45;&gt;sparsify</title>
<path fill="none" stroke="black" d="M364.548,-840.458C369.106,-802.814 373.555,-727.652 347,-672 341.722,-660.939 333.439,-650.903 324.561,-642.341"/>
<polygon fill="black" stroke="black" points="326.777,-639.627 317.016,-635.506 322.077,-644.814 326.777,-639.627"/>
</g>
<!-- ingest_rows_csv -->
<g id="node8" class="node"><title>ingest_rows_csv</title>
<polyline fill="none" stroke="black" points="418,-1176.5 538,-1176.5 "/>
<path fill="none" stroke="black" d="M538,-1176.5C544,-1176.5 550,-1182.5 550,-1188.5"/>
<polyline fill="none" stroke="black" points="550,-1188.5 550,-1211.5 "/>
<path fill="none" stroke="black" d="M550,-1211.5C550,-1217.5 544,-1223.5 538,-1223.5"/>
<polyline fill="none" stroke="black" points="538,-1223.5 418,-1223.5 "/>
<path fill="none" stroke="black" d="M418,-1223.5C412,-1223.5 406,-1217.5 406,-1211.5"/>
<polyline fill="none" stroke="black" points="406,-1211.5 406,-1188.5 "/>
<path fill="none" stroke="black" d="M406,-1188.5C406,-1182.5 412,-1176.5 418,-1176.5"/>
<text text-anchor="start" x="414.5" y="-1206.3" font-family="Helvetica,sans-Serif" font-size="18.00">ingest.rows_csv</text>
<text text-anchor="start" x="449.5" y="-1187.63" font-family="Helvetica,sans-Serif" font-size="14.00">rows_csv</text>
</g>
<!-- make_encoding -->
<g id="node29" class="node"><title>make_encoding</title>
<polygon fill="pink" stroke="black" points="500,-1139.5 358,-1139.5 358,-1092.5 500,-1092.5 500,-1139.5"/>
<text text-anchor="start" x="390.5" y="-1125.23" font-family="Helvetica,sans-Serif" font-size="14.00">loom.format.</text>
<text text-anchor="start" x="366.5" y="-1105.5" font-family="Helvetica,sans-Serif" font-size="18.00">make_encoding</text>
</g>
<!-- ingest_rows_csv&#45;&gt;make_encoding -->
<g id="edge62" class="edge"><title>ingest_rows_csv&#45;&gt;make_encoding</title>
<path fill="none" stroke="black" d="M464.09,-1176.15C459.082,-1167.57 453.343,-1157.73 447.976,-1148.53"/>
<polygon fill="black" stroke="black" points="450.838,-1146.49 442.776,-1139.62 444.791,-1150.02 450.838,-1146.49"/>
</g>
<!-- ingest_rows_csv&#45;&gt;import_rows -->
<g id="edge68" class="edge"><title>ingest_rows_csv&#45;&gt;import_rows</title>
<path fill="none" stroke="black" d="M492.853,-1176.36C498.874,-1165.65 505.273,-1152.59 509,-1140 524.902,-1086.27 528.135,-1020.78 528.466,-981.843"/>
<polygon fill="black" stroke="black" points="531.966,-981.603 528.49,-971.595 524.966,-981.586 531.966,-981.603"/>
</g>
<!-- ingest_schema -->
<g id="node9" class="node"><title>ingest_schema</title>
<polyline fill="none" stroke="black" points="186,-1176.5 294,-1176.5 "/>
<path fill="none" stroke="black" d="M294,-1176.5C300,-1176.5 306,-1182.5 306,-1188.5"/>
<polyline fill="none" stroke="black" points="306,-1188.5 306,-1211.5 "/>
<path fill="none" stroke="black" d="M306,-1211.5C306,-1217.5 300,-1223.5 294,-1223.5"/>
<polyline fill="none" stroke="black" points="294,-1223.5 186,-1223.5 "/>
<path fill="none" stroke="black" d="M186,-1223.5C180,-1223.5 174,-1217.5 174,-1211.5"/>
<polyline fill="none" stroke="black" points="174,-1211.5 174,-1188.5 "/>
<path fill="none" stroke="black" d="M174,-1188.5C174,-1182.5 180,-1176.5 186,-1176.5"/>
<text text-anchor="start" x="182.5" y="-1206.3" font-family="Helvetica,sans-Serif" font-size="18.00">ingest.schema</text>
<text text-anchor="start" x="192.5" y="-1187.63" font-family="Helvetica,sans-Serif" font-size="14.00">schema.json.gz</text>
</g>
<!-- make_schema_row -->
<g id="node28" class="node"><title>make_schema_row</title>
<polygon fill="pink" stroke="black" points="194,-1139.5 24,-1139.5 24,-1092.5 194,-1092.5 194,-1139.5"/>
<text text-anchor="start" x="70.5" y="-1125.23" font-family="Helvetica,sans-Serif" font-size="14.00">loom.format.</text>
<text text-anchor="start" x="32" y="-1105.5" font-family="Helvetica,sans-Serif" font-size="18.00">make_schema_row</text>
</g>
<!-- ingest_schema&#45;&gt;make_schema_row -->
<g id="edge56" class="edge"><title>ingest_schema&#45;&gt;make_schema_row</title>
<path fill="none" stroke="black" d="M203.161,-1176.38C188.091,-1166.72 170.501,-1155.44 154.63,-1145.26"/>
<polygon fill="black" stroke="black" points="156.324,-1142.19 146.017,-1139.74 152.546,-1148.08 156.324,-1142.19"/>
</g>
<!-- ingest_schema&#45;&gt;make_encoding -->
<g id="edge60" class="edge"><title>ingest_schema&#45;&gt;make_encoding</title>
<path fill="none" stroke="black" d="M292.898,-1176.49C315.843,-1166.29 342.876,-1154.28 366.778,-1143.65"/>
<polygon fill="black" stroke="black" points="368.398,-1146.76 376.114,-1139.5 365.555,-1140.37 368.398,-1146.76"/>
</g>
<!-- ingest_schema_row -->
<g id="node10" class="node"><title>ingest_schema_row</title>
<polyline fill="none" stroke="black" points="126.5,-840.5 273.5,-840.5 "/>
<path fill="none" stroke="black" d="M273.5,-840.5C279.5,-840.5 285.5,-846.5 285.5,-852.5"/>
<polyline fill="none" stroke="black" points="285.5,-852.5 285.5,-875.5 "/>
<path fill="none" stroke="black" d="M285.5,-875.5C285.5,-881.5 279.5,-887.5 273.5,-887.5"/>
<polyline fill="none" stroke="black" points="273.5,-887.5 126.5,-887.5 "/>
<path fill="none" stroke="black" d="M126.5,-887.5C120.5,-887.5 114.5,-881.5 114.5,-875.5"/>
<polyline fill="none" stroke="black" points="114.5,-875.5 114.5,-852.5 "/>
<path fill="none" stroke="black" d="M114.5,-852.5C114.5,-846.5 120.5,-840.5 126.5,-840.5"/>
<text text-anchor="start" x="123" y="-870.3" font-family="Helvetica,sans-Serif" font-size="18.00">ingest.schema_row</text>
<text text-anchor="start" x="157.5" y="-851.633" font-family="Helvetica,sans-Serif" font-size="14.00">schema.pb.gz</text>
</g>
<!-- ingest_schema_row&#45;&gt;tare -->
<g id="edge8" class="edge"><title>ingest_schema_row&#45;&gt;tare</title>
<path fill="none" stroke="black" d="M223.562,-840.154C232.576,-831.032 242.987,-820.495 252.553,-810.814"/>
<polygon fill="black" stroke="black" points="255.127,-813.189 259.666,-803.615 250.148,-808.269 255.127,-813.189"/>
</g>
<!-- ingest_schema_row&#45;&gt;sparsify -->
<g id="edge14" class="edge"><title>ingest_schema_row&#45;&gt;sparsify</title>
<path fill="none" stroke="black" d="M197.222,-840.405C193.863,-802.689 191.667,-727.427 219,-672 224.42,-661.008 232.757,-650.998 241.64,-642.439"/>
<polygon fill="black" stroke="black" points="244.124,-644.912 249.179,-635.601 239.421,-639.727 244.124,-644.912"/>
</g>
<!-- ingest_tares -->
<g id="node11" class="node"><title>ingest_tares</title>
<polyline fill="none" stroke="black" points="240,-672.5 326,-672.5 "/>
<path fill="none" stroke="black" d="M326,-672.5C332,-672.5 338,-678.5 338,-684.5"/>
<polyline fill="none" stroke="black" points="338,-684.5 338,-707.5 "/>
<path fill="none" stroke="black" d="M338,-707.5C338,-713.5 332,-719.5 326,-719.5"/>
<polyline fill="none" stroke="black" points="326,-719.5 240,-719.5 "/>
<path fill="none" stroke="black" d="M240,-719.5C234,-719.5 228,-713.5 228,-707.5"/>
<polyline fill="none" stroke="black" points="228,-707.5 228,-684.5 "/>
<path fill="none" stroke="black" d="M228,-684.5C228,-678.5 234,-672.5 240,-672.5"/>
<text text-anchor="start" x="236.5" y="-702.3" font-family="Helvetica,sans-Serif" font-size="18.00">ingest.tares</text>
<text text-anchor="start" x="246" y="-683.633" font-family="Helvetica,sans-Serif" font-size="14.00">tares.pbs.gz</text>
</g>
<!-- ingest_tares&#45;&gt;sparsify -->
<g id="edge16" class="edge"><title>ingest_tares&#45;&gt;sparsify</title>
<path fill="none" stroke="black" d="M283,-672.154C283,-663.926 283,-654.548 283,-645.684"/>
<polygon fill="black" stroke="black" points="286.5,-645.615 283,-635.615 279.5,-645.615 286.5,-645.615"/>
</g>
<!-- infer -->
<g id="node25" class="node"><title>infer</title>
<polygon fill="pink" stroke="black" points="466,-299.5 372,-299.5 372,-252.5 466,-252.5 466,-299.5"/>
<text text-anchor="start" x="380.5" y="-285.233" font-family="Helvetica,sans-Serif" font-size="14.00">loom.runner.</text>
<text text-anchor="start" x="401.5" y="-265.5" font-family="Helvetica,sans-Serif" font-size="18.00">infer</text>
</g>
<!-- ingest_tares&#45;&gt;infer -->
<g id="edge32" class="edge"><title>ingest_tares&#45;&gt;infer</title>
<path fill="none" stroke="black" d="M320.433,-672.42C374.257,-636.087 471.483,-560.805 512,-468 535.479,-414.22 543.447,-387.326 515,-336 506.037,-319.828 490.696,-307.439 474.876,-298.236"/>
<polygon fill="black" stroke="black" points="476.533,-295.153 466.076,-293.448 473.187,-301.302 476.533,-295.153"/>
</g>
<!-- samples_0_assign -->
<g id="node12" class="node"><title>samples_0_assign</title>
<polyline fill="none" stroke="black" points="676.5,-168.5 807.5,-168.5 "/>
<path fill="none" stroke="black" d="M807.5,-168.5C813.5,-168.5 819.5,-174.5 819.5,-180.5"/>
<polyline fill="none" stroke="black" points="819.5,-180.5 819.5,-203.5 "/>
<path fill="none" stroke="black" d="M819.5,-203.5C819.5,-209.5 813.5,-215.5 807.5,-215.5"/>
<polyline fill="none" stroke="black" points="807.5,-215.5 676.5,-215.5 "/>
<path fill="none" stroke="black" d="M676.5,-215.5C670.5,-215.5 664.5,-209.5 664.5,-203.5"/>
<polyline fill="none" stroke="black" points="664.5,-203.5 664.5,-180.5 "/>
<path fill="none" stroke="black" d="M664.5,-180.5C664.5,-174.5 670.5,-168.5 676.5,-168.5"/>
<text text-anchor="start" x="673" y="-198.3" font-family="Helvetica,sans-Serif" font-size="18.00">samples.0.assign</text>
<text text-anchor="start" x="700.5" y="-179.633" font-family="Helvetica,sans-Serif" font-size="14.00">assign.pbs.gz</text>
</g>
<!-- make_consensus -->
<g id="node31" class="node"><title>make_consensus</title>
<polygon fill="pink" stroke="black" points="646,-131.5 490,-131.5 490,-84.5 646,-84.5 646,-131.5"/>
<text text-anchor="start" x="516.5" y="-117.233" font-family="Helvetica,sans-Serif" font-size="14.00">loom.consensus.</text>
<text text-anchor="start" x="498.5" y="-97.5" font-family="Helvetica,sans-Serif" font-size="18.00">make_consensus</text>
</g>
<!-- samples_0_assign&#45;&gt;make_consensus -->
<g id="edge76" class="edge"><title>samples_0_assign&#45;&gt;make_consensus</title>
<path fill="none" stroke="black" d="M693.068,-168.378C672.223,-158.315 647.747,-146.499 626,-136"/>
<polygon fill="black" stroke="black" points="627.393,-132.786 616.866,-131.59 624.35,-139.09 627.393,-132.786"/>
</g>
<!-- samples_0_config -->
<g id="node13" class="node"><title>samples_0_config</title>
<polyline fill="none" stroke="black" points="39.5,-336.5 166.5,-336.5 "/>
<path fill="none" stroke="black" d="M166.5,-336.5C172.5,-336.5 178.5,-342.5 178.5,-348.5"/>
<polyline fill="none" stroke="black" points="178.5,-348.5 178.5,-371.5 "/>
<path fill="none" stroke="black" d="M178.5,-371.5C178.5,-377.5 172.5,-383.5 166.5,-383.5"/>
<polyline fill="none" stroke="black" points="166.5,-383.5 39.5,-383.5 "/>
<path fill="none" stroke="black" d="M39.5,-383.5C33.5,-383.5 27.5,-377.5 27.5,-371.5"/>
<polyline fill="none" stroke="black" points="27.5,-371.5 27.5,-348.5 "/>
<path fill="none" stroke="black" d="M27.5,-348.5C27.5,-342.5 33.5,-336.5 39.5,-336.5"/>
<text text-anchor="start" x="36" y="-366.3" font-family="Helvetica,sans-Serif" font-size="18.00">samples.0.config</text>
<text text-anchor="start" x="66.5" y="-347.633" font-family="Helvetica,sans-Serif" font-size="14.00">config.pb.gz</text>
</g>
<!-- samples_0_config&#45;&gt;infer -->
<g id="edge28" class="edge"><title>samples_0_config&#45;&gt;infer</title>
<path fill="none" stroke="black" d="M178.531,-338.323C181.389,-337.533 184.219,-336.757 187,-336 246.589,-319.785 315.077,-302.201 362.109,-290.287"/>
<polygon fill="black" stroke="black" points="362.972,-293.679 371.808,-287.834 361.255,-286.893 362.972,-293.679"/>
</g>
<!-- query -->
<g id="node26" class="node"><title>query</title>
<polygon fill="pink" stroke="black" points="442,-131.5 348,-131.5 348,-84.5 442,-84.5 442,-131.5"/>
<text text-anchor="start" x="356.5" y="-117.233" font-family="Helvetica,sans-Serif" font-size="14.00">loom.runner.</text>
<text text-anchor="start" x="372.5" y="-97.5" font-family="Helvetica,sans-Serif" font-size="18.00">query</text>
</g>
<!-- samples_0_config&#45;&gt;query -->
<g id="edge44" class="edge"><title>samples_0_config&#45;&gt;query</title>
<path fill="none" stroke="black" d="M97.3916,-336.2C89.4803,-296.12 80.2789,-214.945 122,-168 123.816,-165.956 258.475,-137.033 337.966,-120.103"/>
<polygon fill="black" stroke="black" points="338.796,-123.505 347.848,-118 337.338,-116.659 338.796,-123.505"/>
</g>
<!-- samples_0_config&#45;&gt;get_server -->
<g id="edge88" class="edge"><title>samples_0_config&#45;&gt;get_server</title>
<path fill="none" stroke="black" d="M96.4917,-336.234C93.7419,-325.282 90.7719,-312.065 89,-300 80.9264,-245.028 78.2784,-180.422 77.4139,-141.917"/>
<polygon fill="black" stroke="black" points="80.9105,-141.708 77.2143,-131.779 73.9119,-141.846 80.9105,-141.708"/>
</g>
<!-- samples_0_groups -->
<g id="node14" class="node"><title>samples_0_groups</title>
<polyline fill="none" stroke="black" points="501,-168.5 635,-168.5 "/>
<path fill="none" stroke="black" d="M635,-168.5C641,-168.5 647,-174.5 647,-180.5"/>
<polyline fill="none" stroke="black" points="647,-180.5 647,-203.5 "/>
<path fill="none" stroke="black" d="M647,-203.5C647,-209.5 641,-215.5 635,-215.5"/>
<polyline fill="none" stroke="black" points="635,-215.5 501,-215.5 "/>
<path fill="none" stroke="black" d="M501,-215.5C495,-215.5 489,-209.5 489,-203.5"/>
<polyline fill="none" stroke="black" points="489,-203.5 489,-180.5 "/>
<path fill="none" stroke="black" d="M489,-180.5C489,-174.5 495,-168.5 501,-168.5"/>
<text text-anchor="start" x="497.5" y="-198.3" font-family="Helvetica,sans-Serif" font-size="18.00">samples.0.groups</text>
<text text-anchor="start" x="547" y="-179.633" font-family="Helvetica,sans-Serif" font-size="14.00">groups</text>
</g>
<!-- samples_0_groups&#45;&gt;query -->
<g id="edge48" class="edge"><title>samples_0_groups&#45;&gt;query</title>
<path fill="none" stroke="black" d="M519.349,-168.378C498.187,-158.102 473.26,-145.999 451.302,-135.337"/>
<polygon fill="black" stroke="black" points="452.617,-132.085 442.093,-130.866 449.56,-138.382 452.617,-132.085"/>
</g>
<!-- samples_0_groups&#45;&gt;make_consensus -->
<g id="edge74" class="edge"><title>samples_0_groups&#45;&gt;make_consensus</title>
<path fill="none" stroke="black" d="M568,-168.154C568,-159.926 568,-150.548 568,-141.684"/>
<polygon fill="black" stroke="black" points="571.5,-141.615 568,-131.615 564.5,-141.615 571.5,-141.615"/>
</g>
<!-- samples_0_groups&#45;&gt;get_server -->
<g id="edge92" class="edge"><title>samples_0_groups&#45;&gt;get_server</title>
<path fill="none" stroke="black" d="M488.983,-169.819C485.958,-169.17 482.956,-168.561 480,-168 335.048,-140.505 294.198,-163.21 150,-132 145.966,-131.127 141.841,-130.114 137.706,-129.009"/>
<polygon fill="black" stroke="black" points="138.652,-125.639 128.076,-126.282 136.744,-132.374 138.652,-125.639"/>
</g>
<!-- samples_0_infer_log -->
<g id="node15" class="node"><title>samples_0_infer_log</title>
<polyline fill="none" stroke="black" points="142.5,-168.5 289.5,-168.5 "/>
<path fill="none" stroke="black" d="M289.5,-168.5C295.5,-168.5 301.5,-174.5 301.5,-180.5"/>
<polyline fill="none" stroke="black" points="301.5,-180.5 301.5,-203.5 "/>
<path fill="none" stroke="black" d="M301.5,-203.5C301.5,-209.5 295.5,-215.5 289.5,-215.5"/>
<polyline fill="none" stroke="black" points="289.5,-215.5 142.5,-215.5 "/>
<path fill="none" stroke="black" d="M142.5,-215.5C136.5,-215.5 130.5,-209.5 130.5,-203.5"/>
<polyline fill="none" stroke="black" points="130.5,-203.5 130.5,-180.5 "/>
<path fill="none" stroke="black" d="M130.5,-180.5C130.5,-174.5 136.5,-168.5 142.5,-168.5"/>
<text text-anchor="start" x="139" y="-198.3" font-family="Helvetica,sans-Serif" font-size="18.00">samples.0.infer_log</text>
<text text-anchor="start" x="177" y="-179.633" font-family="Helvetica,sans-Serif" font-size="14.00">infer_log.pbs</text>
</g>
<!-- watch -->
<g id="node32" class="node"><title>watch</title>
<polygon fill="pink" stroke="black" points="273,-131.5 159,-131.5 159,-84.5 273,-84.5 273,-131.5"/>
<text text-anchor="start" x="167" y="-117.233" font-family="Helvetica,sans-Serif" font-size="14.00">loom.__main__.</text>
<text text-anchor="start" x="192.5" y="-97.5" font-family="Helvetica,sans-Serif" font-size="18.00">watch</text>
</g>
<!-- samples_0_infer_log&#45;&gt;watch -->
<g id="edge84" class="edge"><title>samples_0_infer_log&#45;&gt;watch</title>
<path fill="none" stroke="black" d="M216,-168.154C216,-159.926 216,-150.548 216,-141.684"/>
<polygon fill="black" stroke="black" points="219.5,-141.615 216,-131.615 212.5,-141.615 219.5,-141.615"/>
</g>
<!-- samples_0_init -->
<g id="node16" class="node"><title>samples_0_init</title>
<polyline fill="none" stroke="black" points="392,-336.5 494,-336.5 "/>
<path fill="none" stroke="black" d="M494,-336.5C500,-336.5 506,-342.5 506,-348.5"/>
<polyline fill="none" stroke="black" points="506,-348.5 506,-371.5 "/>
<path fill="none" stroke="black" d="M506,-371.5C506,-377.5 500,-383.5 494,-383.5"/>
<polyline fill="none" stroke="black" points="494,-383.5 392,-383.5 "/>
<path fill="none" stroke="black" d="M392,-383.5C386,-383.5 380,-377.5 380,-371.5"/>
<polyline fill="none" stroke="black" points="380,-371.5 380,-348.5 "/>
<path fill="none" stroke="black" d="M380,-348.5C380,-342.5 386,-336.5 392,-336.5"/>
<text text-anchor="start" x="388.5" y="-366.3" font-family="Helvetica,sans-Serif" font-size="18.00">samples.0.init</text>
<text text-anchor="start" x="415.5" y="-347.633" font-family="Helvetica,sans-Serif" font-size="14.00">init.pb.gz</text>
</g>
<!-- samples_0_init&#45;&gt;infer -->
<g id="edge34" class="edge"><title>samples_0_init&#45;&gt;infer</title>
<path fill="none" stroke="black" d="M436.187,-336.154C433.81,-327.837 431.098,-318.344 428.542,-309.395"/>
<polygon fill="black" stroke="black" points="431.86,-308.269 425.747,-299.615 425.129,-310.192 431.86,-308.269"/>
</g>
<!-- samples_0_model -->
<g id="node17" class="node"><title>samples_0_model</title>
<polyline fill="none" stroke="black" points="331,-168.5 459,-168.5 "/>
<path fill="none" stroke="black" d="M459,-168.5C465,-168.5 471,-174.5 471,-180.5"/>
<polyline fill="none" stroke="black" points="471,-180.5 471,-203.5 "/>
<path fill="none" stroke="black" d="M471,-203.5C471,-209.5 465,-215.5 459,-215.5"/>
<polyline fill="none" stroke="black" points="459,-215.5 331,-215.5 "/>
<path fill="none" stroke="black" d="M331,-215.5C325,-215.5 319,-209.5 319,-203.5"/>
<polyline fill="none" stroke="black" points="319,-203.5 319,-180.5 "/>
<path fill="none" stroke="black" d="M319,-180.5C319,-174.5 325,-168.5 331,-168.5"/>
<text text-anchor="start" x="327.5" y="-198.3" font-family="Helvetica,sans-Serif" font-size="18.00">samples.0.model</text>
<text text-anchor="start" x="357.5" y="-179.633" font-family="Helvetica,sans-Serif" font-size="14.00">model.pb.gz</text>
</g>
<!-- samples_0_model&#45;&gt;query -->
<g id="edge46" class="edge"><title>samples_0_model&#45;&gt;query</title>
<path fill="none" stroke="black" d="M395,-168.154C395,-159.926 395,-150.548 395,-141.684"/>
<polygon fill="black" stroke="black" points="398.5,-141.615 395,-131.615 391.5,-141.615 398.5,-141.615"/>
</g>
<!-- samples_0_model&#45;&gt;make_consensus -->
<g id="edge72" class="edge"><title>samples_0_model&#45;&gt;make_consensus</title>
<path fill="none" stroke="black" d="M443.651,-168.378C464.376,-158.315 488.711,-146.499 510.333,-136"/>
<polygon fill="black" stroke="black" points="511.948,-139.107 519.415,-131.59 508.891,-132.81 511.948,-139.107"/>
</g>
<!-- samples_0_model&#45;&gt;get_server -->
<g id="edge90" class="edge"><title>samples_0_model&#45;&gt;get_server</title>
<path fill="none" stroke="black" d="M318.597,-170.218C315.697,-169.458 312.824,-168.716 310,-168 239.346,-150.09 220.258,-151.405 150,-132 146.022,-130.901 141.939,-129.717 137.834,-128.485"/>
<polygon fill="black" stroke="black" points="138.846,-125.135 128.259,-125.54 136.788,-131.825 138.846,-125.135"/>
</g>
<!-- samples_0_shuffled -->
<g id="node18" class="node"><title>samples_0_shuffled</title>
<polyline fill="none" stroke="black" points="208,-336.5 350,-336.5 "/>
<path fill="none" stroke="black" d="M350,-336.5C356,-336.5 362,-342.5 362,-348.5"/>
<polyline fill="none" stroke="black" points="362,-348.5 362,-371.5 "/>
<path fill="none" stroke="black" d="M362,-371.5C362,-377.5 356,-383.5 350,-383.5"/>
<polyline fill="none" stroke="black" points="350,-383.5 208,-383.5 "/>
<path fill="none" stroke="black" d="M208,-383.5C202,-383.5 196,-377.5 196,-371.5"/>
<polyline fill="none" stroke="black" points="196,-371.5 196,-348.5 "/>
<path fill="none" stroke="black" d="M196,-348.5C196,-342.5 202,-336.5 208,-336.5"/>
<text text-anchor="start" x="204.5" y="-366.3" font-family="Helvetica,sans-Serif" font-size="18.00">samples.0.shuffled</text>
<text text-anchor="start" x="233.5" y="-347.633" font-family="Helvetica,sans-Serif" font-size="14.00">shuffled.pbs.gz</text>
</g>
<!-- samples_0_shuffled&#45;&gt;infer -->
<g id="edge30" class="edge"><title>samples_0_shuffled&#45;&gt;infer</title>
<path fill="none" stroke="black" d="M318.37,-336.378C334.624,-326.626 353.622,-315.227 370.706,-304.977"/>
<polygon fill="black" stroke="black" points="372.666,-307.882 379.44,-299.736 369.064,-301.88 372.666,-307.882"/>
</g>
<!-- seed -->
<g id="node19" class="node"><title>seed</title>
<polyline fill="none" stroke="black" points="170,-510 202,-510 "/>
<path fill="none" stroke="black" d="M202,-510C208,-510 214,-516 214,-522"/>
<polyline fill="none" stroke="black" points="214,-522 214,-534 "/>
<path fill="none" stroke="black" d="M214,-534C214,-540 208,-546 202,-546"/>
<polyline fill="none" stroke="black" points="202,-546 170,-546 "/>
<path fill="none" stroke="black" d="M170,-546C164,-546 158,-540 158,-534"/>
<polyline fill="none" stroke="black" points="158,-534 158,-522 "/>
<path fill="none" stroke="black" d="M158,-522C158,-516 164,-510 170,-510"/>
<text text-anchor="start" x="166.5" y="-524.3" font-family="Helvetica,sans-Serif" font-size="18.00">seed</text>
</g>
<!-- config_dump -->
<g id="node21" class="node"><title>config_dump</title>
<polygon fill="pink" stroke="black" points="188,-467.5 70,-467.5 70,-420.5 188,-420.5 188,-467.5"/>
<text text-anchor="start" x="92" y="-453.233" font-family="Helvetica,sans-Serif" font-size="14.00">loom.config.</text>
<text text-anchor="start" x="78" y="-433.5" font-family="Helvetica,sans-Serif" font-size="18.00">config_dump</text>
</g>
<!-- seed&#45;&gt;config_dump -->
<g id="edge4" class="edge"><title>seed&#45;&gt;config_dump</title>
<path fill="none" stroke="black" d="M173.632,-509.773C166.952,-499.93 158.51,-487.489 150.77,-476.083"/>
<polygon fill="black" stroke="black" points="153.541,-473.932 145.029,-467.622 147.748,-477.862 153.541,-473.932"/>
</g>
<!-- seed&#45;&gt;shuffle -->
<g id="edge24" class="edge"><title>seed&#45;&gt;shuffle</title>
<path fill="none" stroke="black" d="M206.18,-509.773C217.612,-499.447 232.209,-486.263 245.328,-474.413"/>
<polygon fill="black" stroke="black" points="247.772,-476.922 252.847,-467.622 243.08,-471.728 247.772,-476.922"/>
</g>
<!-- seed&#45;&gt;generate_init -->
<g id="edge52" class="edge"><title>seed&#45;&gt;generate_init</title>
<path fill="none" stroke="black" d="M211.707,-509.908C215.398,-507.733 219.226,-505.689 223,-504 249.789,-492.01 319.347,-473.781 373.145,-460.563"/>
<polygon fill="black" stroke="black" points="374.11,-463.93 382.993,-458.156 372.447,-457.13 374.11,-463.93"/>
</g>
<!-- config_dump&#45;&gt;samples_0_config -->
<g id="edge6" class="edge"><title>config_dump&#45;&gt;samples_0_config</title>
<path fill="none" stroke="black" d="M121.619,-420.154C119.045,-411.837 116.106,-402.344 113.337,-393.395"/>
<polygon fill="black" stroke="black" points="116.61,-392.133 110.309,-383.615 109.923,-394.203 116.61,-392.133"/>
</g>
<!-- tare&#45;&gt;ingest_tares -->
<g id="edge12" class="edge"><title>tare&#45;&gt;ingest_tares</title>
<path fill="none" stroke="black" d="M283,-756.154C283,-747.926 283,-738.548 283,-729.684"/>
<polygon fill="black" stroke="black" points="286.5,-729.615 283,-719.615 279.5,-729.615 286.5,-729.615"/>
</g>
<!-- sparsify&#45;&gt;ingest_diffs -->
<g id="edge20" class="edge"><title>sparsify&#45;&gt;ingest_diffs</title>
<path fill="none" stroke="black" d="M283,-588.154C283,-579.926 283,-570.548 283,-561.684"/>
<polygon fill="black" stroke="black" points="286.5,-561.615 283,-551.615 279.5,-561.615 286.5,-561.615"/>
</g>
<!-- shuffle&#45;&gt;samples_0_shuffled -->
<g id="edge26" class="edge"><title>shuffle&#45;&gt;samples_0_shuffled</title>
<path fill="none" stroke="black" d="M279,-420.154C279,-411.926 279,-402.548 279,-393.684"/>
<polygon fill="black" stroke="black" points="282.5,-393.615 279,-383.615 275.5,-393.615 282.5,-393.615"/>
</g>
<!-- infer&#45;&gt;samples_0_assign -->
<g id="edge40" class="edge"><title>infer&#45;&gt;samples_0_assign</title>
<path fill="none" stroke="black" d="M466.302,-264.382C512.05,-253.066 583.587,-235.161 654.246,-216.446"/>
<polygon fill="black" stroke="black" points="655.441,-219.75 664.207,-213.8 653.644,-212.984 655.441,-219.75"/>
</g>
<!-- infer&#45;&gt;samples_0_groups -->
<g id="edge38" class="edge"><title>infer&#45;&gt;samples_0_groups</title>
<path fill="none" stroke="black" d="M460.901,-252.378C478.432,-242.494 498.963,-230.92 517.333,-220.564"/>
<polygon fill="black" stroke="black" points="519.163,-223.55 526.155,-215.59 515.725,-217.452 519.163,-223.55"/>
</g>
<!-- infer&#45;&gt;samples_0_infer_log -->
<g id="edge42" class="edge"><title>infer&#45;&gt;samples_0_infer_log</title>
<path fill="none" stroke="black" d="M371.917,-256.518C345.284,-245.497 311.554,-231.54 282.284,-219.428"/>
<polygon fill="black" stroke="black" points="283.53,-216.156 272.952,-215.566 280.854,-222.624 283.53,-216.156"/>
</g>
<!-- infer&#45;&gt;samples_0_model -->
<g id="edge36" class="edge"><title>infer&#45;&gt;samples_0_model</title>
<path fill="none" stroke="black" d="M412.187,-252.154C409.81,-243.837 407.098,-234.344 404.542,-225.395"/>
<polygon fill="black" stroke="black" points="407.86,-224.269 401.747,-215.615 401.129,-226.192 407.86,-224.269"/>
</g>
<!-- generate_init&#45;&gt;samples_0_init -->
<g id="edge54" class="edge"><title>generate_init&#45;&gt;samples_0_init</title>
<path fill="none" stroke="black" d="M443,-420.154C443,-411.926 443,-402.548 443,-393.684"/>
<polygon fill="black" stroke="black" points="446.5,-393.615 443,-383.615 439.5,-393.615 446.5,-393.615"/>
</g>
<!-- make_schema_row&#45;&gt;ingest_schema_row -->
<g id="edge58" class="edge"><title>make_schema_row&#45;&gt;ingest_schema_row</title>
<path fill="none" stroke="black" d="M117.561,-1092.29C133.821,-1047.27 169.211,-949.261 187.893,-897.528"/>
<polygon fill="black" stroke="black" points="191.291,-898.422 191.395,-887.828 184.707,-896.045 191.291,-898.422"/>
</g>
<!-- make_encoding&#45;&gt;ingest_encoding -->
<g id="edge64" class="edge"><title>make_encoding&#45;&gt;ingest_encoding</title>
<path fill="none" stroke="black" d="M429.284,-1092.15C429.382,-1083.93 429.493,-1074.55 429.599,-1065.68"/>
<polygon fill="black" stroke="black" points="433.099,-1065.66 429.719,-1055.62 426.1,-1065.57 433.099,-1065.66"/>
</g>
<!-- import_rows&#45;&gt;ingest_rows -->
<g id="edge70" class="edge"><title>import_rows&#45;&gt;ingest_rows</title>
<path fill="none" stroke="black" d="M481.037,-924.378C461.12,-914.36 437.748,-902.604 416.946,-892.141"/>
<polygon fill="black" stroke="black" points="418.406,-888.957 407.9,-887.59 415.261,-895.211 418.406,-888.957"/>
</g>
<!-- make_consensus&#45;&gt;consensus_assign -->
<g id="edge82" class="edge"><title>make_consensus&#45;&gt;consensus_assign</title>
<path fill="none" stroke="black" d="M517.943,-84.3778C496.524,-74.2699 471.357,-62.393 449.036,-51.8595"/>
<polygon fill="black" stroke="black" points="450.526,-48.6929 439.989,-47.5903 447.539,-55.0234 450.526,-48.6929"/>
</g>
<!-- make_consensus&#45;&gt;consensus_groups -->
<g id="edge80" class="edge"><title>make_consensus&#45;&gt;consensus_groups</title>
<path fill="none" stroke="black" d="M568,-84.1537C568,-75.9262 568,-66.5478 568,-57.6841"/>
<polygon fill="black" stroke="black" points="571.5,-57.6152 568,-47.6152 564.5,-57.6153 571.5,-57.6152"/>
</g>
<!-- make_consensus&#45;&gt;consensus_model -->
<g id="edge78" class="edge"><title>make_consensus&#45;&gt;consensus_model</title>
<path fill="none" stroke="black" d="M617.775,-84.3778C638.98,-74.3148 663.878,-62.4985 686,-52"/>
<polygon fill="black" stroke="black" points="687.758,-55.0398 695.292,-47.5903 684.757,-48.7158 687.758,-55.0398"/>
</g>
</g>
</svg>
